<?xml version="1.0" encoding="UTF-8" standalone="no"?><!DOCTYPE svg PUBLIC "-//W3C//DTD SVG 1.1//EN" "http://www.w3.org/Graphics/SVG/1.1/DTD/svg11.dtd"><svg width="100%" height="100%" viewBox="0 0 61 83" version="1.1" xmlns="http://www.w3.org/2000/svg" xmlns:xlink="http://www.w3.org/1999/xlink" xml:space="preserve" xmlns:serif="http://www.serif.com/" style="fill-rule:evenodd;clip-rule:evenodd;stroke-linejoin:round;stroke-miterlimit:2;"><g><path d="M29.977,0l0.229,0c16.541,0 29.975,13.433 29.975,29.975c0,0.254 -0.004,0.504 -0.013,0.754c0.013,0.113 0.017,0.229 0.009,0.342c-0.509,10.408 -3.996,26.658 -28.192,50.596c-0.496,0.491 -1.175,0.75 -1.871,0.721l-0.025,-0.005l-0.021,0.004c-0.696,0.03 -1.375,-0.229 -1.871,-0.72c-24.195,-23.938 -27.683,-40.188 -28.195,-50.596c-0.005,-0.113 0,-0.229 0.008,-0.342c-0.008,-0.25 -0.008,-0.5 -0.008,-0.754c0,-16.542 13.429,-29.975 29.975,-29.975Zm0.112,17.05c-6.712,0.004 -12.162,5.454 -12.162,12.167c0,6.716 5.45,12.166 12.162,12.17c6.717,-0.004 12.167,-5.454 12.167,-12.17c0,-6.713 -5.45,-12.163 -12.167,-12.167Z" style="fill:#fff;"/></g></svg>